<?xml version="1.0" encoding="UTF-8"?>
<!-- Created with EazyDraw for Mac ( http://www.eazydraw.com/ ) -->

<svg
    version="1.1"
    xmlns:dc="http://purl.org/dc/elements/1.1/"
    xmlns:cc="http://creativecommons.org/ns#"
    xmlns:rdf="http://www.w3.org/1999/02/22-rdf-syntax-ns#"
    xmlns:svg="http://www.w3.org/2000/svg"
    xmlns:xlink="http://www.w3.org/1999/xlink"
    xmlns="http://www.w3.org/2000/svg"
    width="163.261977752"
    height="42.2598214286"
    viewBox="0, 0, 163.261977752, 42.2598214286"
    preserveAspectRatio="none"
    id="svg2">
   <defs
       id="defs_FA48EE48"/>
   <metadata
       id="metadata7">
      <rdf:RDF>
         <cc:Work
             rdf:about="">
            <dc:format>image/svg+xml</dc:format>
            <dc:type rdf:resource="http://purl.org/dc/dcmitype/StillImage"/>
            <dc:title></dc:title>
         </cc:Work>
      </rdf:RDF>
   </metadata>
   <g
       id="layer_Paper"
       style="fill:#000000;fill-opacity:1;stroke:#000000;stroke-opacity:1;fill-rule:nonzero;stroke-linecap:square;stroke-linejoin:miter;stroke-width:1;stroke-miterlimit:10">
      <path
          style="fill:#FF0000;stroke:none"
          id="73E90EC7"
          d="M0.857136771673,0.078571428586 C0.628566965877,0.185714285725 0.592852933739,0.235714285715 0.55713890156,0.53571428574 C0.528567675867,0.721428571423 0.507139256576,1.014285714288 0.507139256576,1.185714285737
C0.507139256576,1.350000000026 0.471425224397,1.578571428582 0.428568385815,1.692857142881 C0.221426999352,2.221428571419 0.15714174148,2.635714285743 0.235712612198,2.857142857139 C0.292855063668,3.028571428588 0.292855063668,3.150000000005 0.228569805796,3.342857142847
C0.1214277093,3.671428571426 0.114284902898,4.085714285707 0.149998935035,6.392857142872 C0.15714174148,6.942857142847 0.15714174148,7.50714285714 0.15714174148,7.642857142876 C0.15714174148,7.778571428569 0.149998935035,7.985714285731 0.15714174148,8.107142857147
C0.15714174148,8.221428571446 0.15714174148,8.385714285735 0.15714174148,8.464285714279 C0.171427354326,9.349999999991 0.064285257872,11.1785714286 0,11.2571428572 C-0.064285257872,11.3357142857 -0.064285257872,11.4857142857 0,11.8785714286
C0.092856483607,12.4642857143 0.128570515745,13.7857142857 0.057142451428,13.9071428572 C0.028571225735,13.95 0.078570870719,14.0714285714 0.15714174148,14.1714285714 C0.285712257224,14.3285714286 0.299997870071,14.4214285714 0.264283837933,14.6642857143
C0.128570515745,15.4714285714 0.092856483607,16.2071428571 0.164284547882,16.6642857143 C0.221426999352,17.0214285714 0.221426999352,17.25 0.164284547882,17.5071428572 C0.057142451428,17.9571428572 0.057142451428,18.25 0.15714174148,18.4428571429
C0.214284192908,18.5571428572 0.214284192908,18.6642857143 0.15714174148,18.8714285714 C0.085713677163,19.1 0.085713677163,19.1857142857 0.171427354326,19.3071428571 C0.328569095806,19.5571428571 0.45713961155,20.1142857143 0.414282772969,20.3714285714
C0.392854353678,20.5 0.321426289361,20.8 0.257141031489,21.0357142857 C0.142856128591,21.45 0.064285257872,22.8071428572 0.078570870719,24.0071428571 C0.085713677163,24.3357142857 0.057142451428,24.5785714286 0.014285612846,24.6071428571
C-0.028571225735,24.6285714286 -0.042856838582,24.6928571429 -0.014285612847,24.7357142857 C0.071428064317,24.8714285715 0.092856483607,27.7214285714 0.007142806444,27.8214285714 C-0.042856838582,27.8857142857 -0.042856838582,27.9714285714 0.007142806444,28.1142857143
C0.128570515745,28.4214285714 0.199998580061,30.4 0.128570515745,31.3928571429 C0.107142096454,31.6285714286 0.071428064317,32.2357142857 0.049999645026,32.75 C0.028571225735,33.2571428572 -0.014285612847,33.75 -0.028571225735,33.8428571429
C-0.049999645026,33.9285714286 -0.021428419291,34.1428571429 0.035714032137,34.3142857143 C0.09999929001,34.5071428572 0.142856128591,34.9214285714 0.142856128591,35.4357142857 C0.149998935035,35.8857142857 0.149998935035,36.3214285715 0.149998935035,36.4071428572
C0.149998935035,36.5 0.149998935035,36.6571428571 0.149998935035,36.7642857143 C0.114284902898,37.9 0.128570515745,39.6571428571 0.17857016077,39.8642857143 C0.228569805796,40.0785714286 0.207141386463,40.1642857143 0.085713677163,40.3285714286
C-0.035714032137,40.5 -0.049999645026,40.5785714286 0,40.75 C0.035714032137,40.8714285714 0.107142096454,41.1071428571 0.164284547882,41.2857142857 C0.242855418643,41.5642857143 0.307140676515,41.6285714286 0.61428135303,41.7857142857
C0.957136061682,41.9571428571 1.021421319555,41.9642857143 2.042842639109,41.9357142857 C5.24281991992,41.8642857143 10.9284938385,41.9071428572 11.5284895787,42.0071428571 C11.8356302552,42.0571428572 11.9713435774,42.0571428572 12.0499144481,42
C12.1213425124,41.9357142857 13.3927620571,41.9142857143 16.8784515951,41.9142857143 C19.4855759422,41.9214285714 21.7427027742,41.9214285714 21.8998445157,41.9214285714 C22.0569862571,41.9214285714 22.685553223,41.9214285714 23.2926917696,41.9214285714
C25.4641049245,41.9142857143 28.2640850452,41.9714285714 28.342655916,42.0214285715 C28.3855127545,42.05 28.5069404638,42.0214285715 28.6212253667,41.9714285714 C28.7855099146,41.8928571429 29.2926491712,41.8785714286 31.1140648109,41.8928571429
C33.5283333844,41.9071428572 34.1497575439,41.9642857143 34.4711838332,42.1714285714 C34.6354683812,42.2785714286 34.699753639,42.2857142857 34.8497525741,42.2142857143 C35.0283227348,42.1357142857 36.0568868608,42.0428571428 37.8640168877,41.9571428571
C38.4211557893,41.9285714286 38.8354385622,41.8714285714 38.964009078,41.8071428571 C39.0997224002,41.7357142857 39.2711497545,41.7142857143 39.478291141,41.75 C39.6925753339,41.7785714286 39.8497170753,41.7571428571 40.0068588168,41.6785714286
C40.1854289776,41.5857142857 40.2782854612,41.5785714286 40.4711412348,41.6428571429 C40.7782819113,41.7428571429 41.1854218779,41.5928571429 41.2568499422,41.3428571429 C41.2854211679,41.2571428572 41.371134845,41.1 41.4425629094,41.0071428572
C41.5925618444,40.8214285714 41.635418683,40.0214285714 41.5068481672,39.7857142857 C41.4568485222,39.6928571429 41.4711341351,39.5785714286 41.5497050058,39.3857142857 C41.6282758765,39.2 41.6425614894,39.0714285715 41.5925618444,38.9714285714
C41.5568478122,38.8857142857 41.5425621994,38.7071428572 41.5639906187,38.5642857143 C41.5782762315,38.4142857143 41.5568478122,38.2785714286 41.5139909737,38.2571428572 C41.4211344901,38.1928571429 41.4068488772,37.8785714286 41.4997053608,37.8214285714
C41.5425621994,37.8 41.5425621994,37.7 41.4997053608,37.5785714286 C41.4425629094,37.4142857143 41.4497057158,37.3285714286 41.5282765865,37.2 C41.6139902637,37.0785714286 41.635418683,36.7714285714 41.6425614894,35.9357142857
C41.6568471023,34.9857142857 41.635418683,34.8214285715 41.5282765865,34.7 C41.4211344901,34.5785714286 41.4211344901,34.5428571429 41.5068481672,34.4071428571 C41.5568478122,34.3214285714 41.6139902637,34.0071428572 41.6282758765,33.7142857143
C41.6425614894,33.4214285714 41.685418328,33.15 41.7139895537,33.1071428571 C41.7497035859,33.0714285714 41.7497035859,32.8071428572 41.7139895537,32.5357142857 C41.6139902637,31.6642857143 41.6425614894,30.1285714286 41.7568463923,29.9714285715
C41.8139888437,29.9 41.8425600695,29.8071428572 41.8211316502,29.7714285715 C41.7925604244,29.7357142857 41.7497035859,29.4928571429 41.7211323601,29.2357142857 C41.6711327151,28.8571428571 41.685418328,28.7285714286 41.7711320052,28.5928571429
C41.8639884888,28.4571428571 41.8711312952,28.3857142857 41.8068460373,28.25 C41.7497035859,28.1214285714 41.7425607794,28.0142857143 41.7997032309,27.8785714286 C41.8425600695,27.7642857143 41.8711312952,27.4214285715 41.8711312952,27.1071428572
C41.8497028759,25.55 41.7997032309,24.4142857143 41.735417973,24.3357142857 C41.6497042958,24.2357142857 41.685418328,23.4928571429 41.8282744566,22.0071428572 C41.9211309402,21.0785714286 41.9211309402,20.9571428572 41.8211316502,20.8071428571
C41.735417973,20.6642857143 41.7282751666,20.5928571429 41.7925604244,20.3928571429 C41.835417263,20.2571428572 41.8568456823,20.1142857143 41.835417263,20.0785714286 C41.7782748116,19.9857142857 41.9211309402,18.6571428572 42.0139874238,18.4214285714
C42.0711298752,18.2714285714 42.0568442624,18.1571428572 41.935416553,17.8714285714 C41.7997032309,17.5642857143 41.7925604244,17.4714285715 41.8568456823,17.1214285714 C41.9425593595,16.6642857143 41.8997025209,16.2714285714 41.735417973,15.95
C41.6425614894,15.7642857143 41.635418683,15.6928571429 41.7068467473,15.5357142857 C41.8282744566,15.2642857143 41.8139888437,15.1571428571 41.6139902637,14.9857142857 C41.4354201029,14.8285714286 41.3782776515,14.5428571428 41.5068481672,14.4642857143
C41.5497050058,14.4357142857 41.5639906187,14.3142857143 41.535419393,14.1785714286 C41.5139909737,14.0428571429 41.5139909737,13.9 41.5425621994,13.8571428571 C41.5711334251,13.8071428571 41.5997046508,13.6071428571 41.6068474572,13.4071428571
C41.6211330701,13.2 41.6639899087,12.8357142857 41.7139895537,12.5857142857 C41.785417618,12.2071428572 41.7782748116,12.0857142857 41.685418328,11.8142857143 C41.6282758765,11.6428571429 41.5782762315,11.4214285714 41.5782762315,11.3357142857
C41.5782762315,11.2428571429 41.5425621994,11.1357142857 41.4997053608,11.0928571429 C41.4354201029,11.0285714286 41.4354201029,10.9571428572 41.4925625544,10.8071428572 C41.535419393,10.7 41.5711334251,10.5071428571 41.5711334251,10.3928571429
C41.5711334251,10.2714285715 41.5925618444,9.949999999998 41.6211330701,9.664285714293 C41.6497042958,9.36428571431 41.635418683,9.057142857169 41.5925618444,8.93571428571 C41.535419393,8.78571428574 41.5425621994,8.657142857164 41.5925618444,8.514285714311
C41.6568471023,8.342857142863 41.6497042958,8.25 41.5639906187,8.064285714317 C41.4568485222,7.849999999995 41.4568485222,7.807142857165 41.5568478122,7.571428571449 C41.6282758765,7.421428571437 41.6782755215,7.092857142859 41.685418328,6.750000000004
C41.6925611344,6.435714285745 41.735417973,6.107142857166 41.7782748116,6.021428571421 C41.8854169081,5.821428571419 41.8854169081,5.335714285711 41.785417618,5.235714285731 C41.6639899087,5.114285714314 41.6639899087,4.100000000026 41.7782748116,3.992857142886
C41.9139881337,3.849999999991 41.8854169081,3.514285714296 41.7211323601,3.414285714316 C41.5568478122,3.307142857134 41.5425621994,3.142857142887 41.6782755215,2.871428571459 C41.8497028759,2.535714285721 41.8925597145,2.085714285726 41.7639891987,1.892857142883
C41.6782755215,1.757142857148 41.6639899087,1.607142857136 41.6997039408,1.157142857141 C41.7425607794,0.600000000007 41.735417973,0.57857142857 41.5497050058,0.400000000005 C41.4282772965,0.292857142865 41.1997074907,0.192857142885 40.9497092657,0.142857142853
C40.7211394599,0.100000000022 40.4354272026,0.035714285713 40.2997138805,0 C40.1211437197,-0.04999999999 39.9997160104,-0.035714285713 39.8497170753,0.042857142873 C39.7354321725,0.100000000022 39.5854332375,0.135714285735 39.5211479796,0.114285714299
C39.4497199153,0.092857142863 39.0782939809,0.107142857139 38.6854396272,0.150000000012 C37.8997309198,0.228571428598 37.4497341147,0.242857142875 36.2140286023,0.214285714279 C35.6640325071,0.207142857162 35.2926065727,0.228571428598 35.1211792184,0.292857142865
C34.9068950255,0.371428571451 34.8211813483,0.371428571451 34.599754349,0.285714285705 C34.399755769,0.207142857162 33.9140449317,0.171428571449 32.7211962578,0.157142857172 C31.8354882604,0.142857142853 31.0212083273,0.142857142853 30.899780618,0.142857142853
C30.6212111673,0.157142857172 30.3069276843,0.157142857172 29.6497894927,0.150000000012 C29.3569344291,0.142857142853 28.8426523661,0.157142857172 28.5069404638,0.185714285725 C28.1712285616,0.207142857162 27.8712306915,0.221428571439 27.8283738529,0.214285714279
C27.3926626607,0.164285714289 25.1855354737,0.150000000012 25.1283930223,0.200000000002 C25.0783933772,0.235714285715 24.6641106043,0.235714285715 24.1498285413,0.200000000002 C23.6569748976,0.164285714289 22.485554643,0.150000000012 21.5427041942,0.178571428566
C20.5998537454,0.207142857162 19.6212892644,0.221428571439 19.3784338458,0.214285714279 C19.099864395,0.207142857162 18.8641517828,0.242857142875 18.7712952992,0.300000000025 C18.3927265583,0.53571428574 18.0284434304,0.600000000007 17.5213041738,0.507142857144
C17.0713073687,0.428571428601 16.9998793044,0.435714285718 16.6427389829,0.571428571453 C16.3284554999,0.69285714287 16.1641709521,0.707142857146 15.7570309855,0.671428571433 C15.4856043412,0.64285714288 15.1427496325,0.57857142857 15.0070363103,0.514285714304
C14.8713229882,0.457142857154 14.471325828,0.385714285728 14.1141855065,0.350000000015 C13.7641879915,0.321428571419 13.3141911863,0.257142857152 13.1141926063,0.214285714279 C12.778480704,0.135714285735 11.0570643543,0.157142857172 9.507075358908,0.257142857152
C9.21422029524,0.278571428588 8.907079618767,0.292857142865 8.828508748006,0.292857142865 C8.364226330053,0.300000000025 5.199963081338,0.135714285735 4.542824889769,0.071428571426 C4.114256503911,0.028571428596 3.164263248673,-0.007142857117 2.435696992787,-0.021428571436
C1.34999041536,-0.035714285713 1.078563770982,-0.014285714277 0.857136771673,0.078571428586 z M5.992814595138,3.021428571429 C6.249955626628,3.242857142867 8.478511232909,3.22857142859 9.721359551816,2.999999999992
C10.0285002283,2.942857142885 10.2784984534,2.957142857162 10.8499229678,3.050000000025 C11.4142046758,3.135714285728 11.6856313202,3.150000000005 11.9927719967,3.100000000015 C12.2213418025,3.057142857142 12.5641965111,3.035714285705 12.7570522847,3.050000000025
C12.9570508648,3.064285714301 14.371326538,3.100000000015 15.8998871141,3.135714285728 C18.1927279783,3.1785714286 18.735581267,3.171428571441 18.9712938792,3.092857142855 C19.1212928143,3.042857142865 19.299862975,3.014285714311 19.3641482329,3.042857142865
C19.4212906843,3.071428571419 19.9355727473,3.121428571451 20.5069972618,3.157142857164 C21.0784217762,3.185714285718 21.606989452,3.221428571431 21.6855603228,3.22857142859 C21.7641311935,3.235714285708 22.3141272887,3.214285714314 22.899837416,3.185714285718
C23.4926903497,3.157142857164 24.7141102493,3.114285714291 25.6141038595,3.092857142855 C26.5212402762,3.071428571419 27.5498044022,3.042857142865 27.8998019173,3.028571428588 C29.3355060098,2.964285714279 30.4569266193,3.021428571429 30.8640665859,3.1785714286
C31.2569209395,3.328571428571 32.242628227,3.37857142856 34.3640417368,3.350000000007 C35.2068928956,3.342857142847 36.4211699887,3.33571428573 37.0568797611,3.328571428557 L38.2211572092,3.321428571453
L38.4425842086,3.550000000009 C38.6282971758,3.728571428575 38.6782968208,3.849999999991 38.7068680465,4.157142857133 C38.7211536593,4.364285714295 38.7711533044,4.578571428574 38.8140101429,4.628571428564
C38.864009788,4.692857142873 38.8568669815,4.842857142886 38.7925817237,5.114285714314 C38.7211536593,5.407142857137 38.7140108529,5.585714285745 38.7711533044,5.785714285705 C38.8211529494,5.992857142867 38.8140101429,6.100000000007 38.7354392722,6.257142857136
C38.6425827886,6.428571428585 38.6425827886,6.471428571458 38.7425820786,6.642857142864 C38.8425813687,6.814285714313 38.8854382073,7.46428571431 38.8568669815,8.392857142853 C38.8568669815,8.507142857152 38.8854382073,8.78571428574 38.9282950458,9.000000000019
C38.9925803037,9.292857142884 38.9925803037,9.457142857173 38.9282950458,9.657142857133 C38.8568669815,9.871428571455 38.864009788,10.0142857143 38.964009078,10.4071428572 C39.0997224002,10.9785714286 39.1068652066,11.2285714286 38.9925803037,11.3428571429
C38.9282950458,11.4071428572 38.9354378523,11.4928571429 39.0068659166,11.7142857143 C39.0925795937,11.9785714286 39.0854367873,12.0285714286 38.9425806587,12.3285714286 C38.8282957558,12.5571428571 38.7854389172,12.7285714286 38.8140101429,12.8928571429
C38.8354385622,13.0214285715 38.8211529494,13.1571428572 38.7854389172,13.1928571429 C38.6711540144,13.3071428572 38.6568684015,14.5428571428 38.7640104979,14.7071428571 C38.8497241751,14.8214285714 38.8425813687,14.8642857143 38.7140108529,15.0285714286
C38.5711547243,15.2071428572 38.5711547243,15.2285714286 38.6782968208,15.8 C38.7354392722,16.1285714286 38.7640104979,16.4785714286 38.7425820786,16.5928571429 C38.7211536593,16.7 38.7425820786,16.8357142857 38.7925817237,16.8928571429
C38.8782954008,17 38.8282957558,17.2857142857 38.7140108529,17.2857142857 C38.6140115629,17.2857142857 38.6354399822,17.5285714286 38.7568676915,17.6857142857 C38.8997238201,17.8714285714 38.8925810137,18.2071428572 38.7425820786,18.3714285714
C38.6282971758,18.5 38.6282971758,18.5214285715 38.7354392722,18.7357142857 C38.8425813687,18.9285714286 38.8497241751,19.1857142857 38.8354385622,20.5357142857 C38.8211529494,21.4 38.7782961108,22.2857142857 38.7354392722,22.5
C38.6925824336,22.7142857143 38.6425827886,23.2142857143 38.6282971758,23.6071428571 C38.6140115629,24 38.5711547243,24.3857142857 38.5282978857,24.4642857143 C38.4854410471,24.5571428572 38.4782982407,24.7928571429 38.5068694664,25.1071428572
C38.5425834986,25.3785714286 38.549726305,25.6357142857 38.5282978857,25.6714285714 C38.5068694664,25.7071428571 38.4782982407,26.0785714286 38.4711554343,26.4928571429 C38.4568698214,27.0642857143 38.4782982407,27.2928571429 38.5640119179,27.4214285715
C38.6425827886,27.55 38.6711540144,27.8642857143 38.6925824336,28.6214285714 C38.69972524,29.1928571429 38.7425820786,29.6928571429 38.7782961108,29.7357142857 C38.8782954008,29.8642857143 39.014008723,31.7857142857 38.9282950458,31.9357142857
C38.8925810137,32.0071428571 38.864009788,32.1428571429 38.864009788,32.2357142857 C38.864009788,32.3285714286 38.8211529494,32.5 38.7640104979,32.6142857143 C38.6854396272,32.7714285714 38.6640112079,33.0928571429 38.6782968208,34
C38.6925824336,34.7 38.6711540144,35.2142857143 38.6282971758,35.2714285715 C38.5782975307,35.3285714286 38.5854403372,35.4214285714 38.6354399822,35.5357142857 C38.7282964658,35.7285714286 38.6711540144,36.55 38.5711547243,36.6142857143
C38.449727015,36.6857142857 38.5140122729,36.9857142857 38.6854396272,37.15 C38.7782961108,37.2428571429 38.864009788,37.3714285715 38.864009788,37.4285714286 C38.864009788,37.6071428572 38.6282971758,38.1714285714 38.4854410471,38.3357142857
C38.3425849186,38.4928571429 37.4997337598,38.9285714286 37.3354492118,38.9285714286 C37.2783067604,38.9285714286 37.1997358897,38.9785714286 37.1425934382,39.0428571429 C37.0711653739,39.1285714286 36.9711660839,39.1428571429 36.6854538267,39.1071428572
C36.3854559566,39.0714285715 36.292599473,39.0857142857 36.1354577316,39.2142857143 C35.9211735386,39.3785714286 35.5497476043,39.4 35.2926065727,39.25 C35.0497511541,39.1142857143 34.3640417368,39.1142857143 33.935473351,39.2571428571
C33.6997607388,39.3357142857 33.471190933,39.3571428572 33.2426211272,39.3285714286 C32.3997699684,39.2214285714 31.3997770682,39.1428571429 30.5069262644,39.1071428572 C29.9783585885,39.0928571428 29.2855063647,39.05 28.9712228818,39.0142857143
C28.642653786,38.9857142857 28.2640850452,38.9857142857 28.078372078,39.0285714286 C27.564090015,39.1357142857 25.0283937322,39.1642857143 24.5712541207,39.0714285715 C24.2212566056,38.9928571429 24.1141145091,39.0071428571 23.6498320912,39.1428571429
C23.249834931,39.2642857143 23.0212651253,39.2928571428 22.7212672552,39.2571428571 C22.5069830623,39.2357142857 22.0784146764,39.1857142857 21.7784168064,39.1571428572 C21.4784189363,39.1214285714 21.1855638727,39.0642857143 21.1355642276,39.0214285714
C20.9498512604,38.8714285715 20.5284256811,38.8571428572 19.9641439731,38.9714285714 C19.6570032965,39.0357142857 19.0427219435,39.1 18.6070107512,39.1214285714 C17.8855873018,39.1428571429 17.7855880118,39.1285714286 17.5498753996,38.9928571429
C17.3213055938,38.8571428572 17.1498782395,38.8357142857 16.2355990164,38.8142857143 C14.2498988287,38.7571428572 11.2213489022,38.7785714286 11.08563558,38.8571428572 C10.9284938385,38.9357142857 9.685645519679,39.0857142857 9.23564871453,39.0785714286
C9.071364166649,39.0714285715 8.83565155445,39.1214285714 8.721366651552,39.1785714286 C8.607081748654,39.2357142857 8.392797555746,39.2857142857 8.249941427155,39.2857142857 C8.09994249212,39.2857142857 7.778516202758,39.3214285714 7.528517977671,39.3642857143
C7.121378011147,39.4357142857 7.04994994683,39.4285714286 6.799951721785,39.3 C6.64995278675,39.2214285714 6.507096658117,39.1642857143 6.49281104527,39.1785714286 C6.478525432382,39.2 6.271384045918,39.2142857143 6.042814240164,39.2214285714
C5.728530757205,39.2357142857 5.521389370742,39.2 5.278533952099,39.0857142857 C4.921393630558,38.9214285714 4.057114052483,38.8642857143 3.97140037532,39 C3.892829504601,39.1285714286 3.764258988857,39.0714285715 3.442832699453,38.7857142857
C3.264262538725,38.6285714286 3.085692377954,38.5 3.035692732929,38.5 C2.885693797893,38.5 2.785694507884,38.2357142857 2.828551346465,37.9785714286 C2.864265378603,37.7857142857 2.835694152867,37.7142857143 2.657123992139,37.5428571429
C2.421411379899,37.3142857143 2.378554541317,37.1571428571 2.528553476352,37.0071428572 C2.607124347113,36.9285714286 2.635695572848,36.6928571429 2.649981185695,36.1142857143 C2.649981185695,36 2.685695217832,35.85 2.728552056414,35.7714285714
C2.771408894995,35.6928571429 2.835694152867,35.4 2.864265378603,35.1142857143 C2.89997941074,34.8357142857 2.95712186221,34.4285714286 2.999978700791,34.2142857143 C3.07854957151,33.8214285714 3.157120442271,32.9 3.178548861562,32.2785714286
C3.178548861562,32.1 3.228548506546,31.9 3.278548151571,31.8357142857 C3.35711902229,31.75 3.35711902229,31.6142857143 3.299976570862,31.1857142857 C3.257119732281,30.8928571429 3.242834119434,30.6 3.264262538725,30.5428571429
C3.285690958016,30.4857142857 3.257119732281,30.3285714286 3.192834474408,30.2071428572 C3.121406410092,30.0642857143 3.07854957151,29.7928571429 3.07854957151,29.4857142857 C3.07854957151,29.1857142857 3.035692732929,28.9142857143 2.971407475056,28.7857142857
C2.89997941074,28.6428571429 2.857122572158,28.2785714286 2.835694152867,27.5928571429 C2.807122927174,26.7642857143 2.821408540021,26.5857142857 2.914265023628,26.4857142857 C2.999978700791,26.3857142857 3.028549926484,26.1714285715 3.042835539373,25.55
C3.049978345775,25.1071428572 3.092835184357,24.6857142857 3.13569202298,24.6071428571 C3.257119732281,24.3642857143 3.314262183709,22.4142857143 3.228548506546,21.3714285714 C3.164263248673,20.6357142857 3.164263248673,20.3928571429 3.228548506546,20.3142857143
C3.292833764418,20.2357142857 3.292833764418,20.1428571429 3.23569131299,19.9428571429 C3.185691667964,19.8 3.13569202298,19.3571428571 3.121406410092,18.9571428571 C3.107120797245,18.4928571429 3.057121152219,18.1571428572 2.985693087903,18.0214285714
C2.878550991449,17.8285714286 2.878550991449,17.7928571429 2.992835894347,17.6357142857 C3.057121152219,17.5428571429 3.149977635827,17.4214285714 3.199977280852,17.3714285714 C3.292833764418,17.2714285715 3.278548151571,16.8071428571 3.171406055117,16.3571428571
C3.142834829382,16.2571428572 3.121406410092,15.6285714286 3.114263603689,14.9571428572 C3.114263603689,14.0571428571 3.085692377954,13.7 3.014264313638,13.6142857143 C2.949979055766,13.5357142857 2.935693442919,13.3857142857 2.964264668612,13.1285714286
C2.985693087903,12.9214285714 3.007121507193,12.65 3.007121507193,12.5357142857 C3.007121507193,12.4142857143 3.042835539373,12.2142857143 3.085692377954,12.0928571429 C3.149977635827,11.8928571429 3.13569202298,11.8285714286 3.007121507193,11.6428571429
C2.878550991449,11.4571428572 2.864265378603,11.4071428572 2.942836249321,11.3142857143 C2.992835894347,11.25 3.042835539373,10.9714285714 3.057121152219,10.6928571429 C3.064263958664,10.4071428572 3.114263603689,10.0928571429 3.157120442271,9.985714285712
C3.23569131299,9.785714285709 3.228548506546,9.564285714313 3.07854957151,8.428571428566 C3.028549926484,8.021428571444 2.928550636475,7.642857142876 2.842836959312,7.478571428587 C2.714266443567,7.257142857148 2.707123637123,7.185714285722 2.778551701439,7.071428571422
C2.828551346465,6.992857142879 2.864265378603,6.707142857173 2.864265378603,6.435714285745 C2.864265378603,6.157142857156 2.892836604338,5.914285714281 2.935693442919,5.892857142887 C2.971407475056,5.871428571451 3.007121507193,5.685714285725 3.007121507193,5.478571428563
C3.007121507193,4.314285714305 2.992835894347,4.107142857143 2.885693797893,3.985714285727 C2.728552056414,3.807142857161 2.79998012073,3.614285714276 3.042835539373,3.571428571446 C3.185691667964,3.54285714285 3.264262538725,3.485714285742 3.292833764418,3.364285714284
C3.321404990153,3.250000000027 3.41426147376,3.164285714281 3.557117602351,3.114285714291 C3.685688118096,3.071428571419 3.821401440285,2.999999999992 3.857115472422,2.964285714279 C3.978543181764,2.842857142863 5.849958466505,2.892857142853 5.992814595138,3.021428571429
z"/>
      <path
          style="fill:#FF0000;stroke:none"
          id="E3E90EC7"
          d="M0.824967899034,4.857142857153 C0.667826157565,5.00000000001 0.667826157565,5.042857142867 0.667826157565,7.00000000001 C0.667826157565,8.957142857153 0.667826157565,9.00000000001 0.824967899034,9.142857142867
C1.032109285517,9.328571428581 1.524962929216,9.342857142867 1.689247477116,9.157142857153 C1.796389573573,9.042857142867 1.810675186434,8.785714285724 1.810675186434,6.985714285724 C1.810675186434,5.107142857153 1.803532380003,4.942857142867 1.682104670686,4.835714285724
C1.496391703495,4.664285714296 1.017823672656,4.678571428581 0.824967899034,4.857142857153 z"/>
      <path
          style="fill:#FF0000;stroke:none"
          id="24E90EC7"
          d="M6.878522592504,4.857142857147 L6.721380851035,5.007142857157 L6.721380851035,12.5 C6.721380851035,19.9071428572 6.721380851035,20 6.864236979643,20.1428571429 C6.971379076099,20.25 7.099949591847,20.2857142857 7.385661849065,20.2857142857
C7.585660429117,20.2857142857 7.80708742846,20.25 7.864229879904,20.2142857143 C7.957086363499,20.1571428572 7.97137197636,19.2142857143 7.992800395652,12.5571428572 L8.007086008512,4.964285714299 L7.849944267043,4.842857142872
C7.614231654838,4.664285714296 7.078521172557,4.671428571441 6.878522592504,4.857142857147 z"/>
      <path
          style="fill:#FF0000;stroke:none"
          id="64E90EC7"
          d="M9.271362746698,4.842857142867 C9.164220650242,4.957142857153 9.149935037381,5.221428571438 9.149935037381,7.085714285724 C9.149935037381,9.471428571439 9.12850661809,9.392857142867 9.699931132524,9.392857142867
C10.2284988084,9.392857142867 10.2213560019,9.414285714296 10.2213560019,7.035714285724 C10.2213560019,5.107142857153 10.2142131955,4.942857142867 10.0927854862,4.835714285724 C9.907072519006,4.671428571439 9.421361681737,4.678571428581 9.271362746698,4.842857142867
z"/>
      <path
          style="fill:#FF0000;stroke:none"
          id="C4E90EC7"
          d="M12.5070540597,4.835714285723 C12.1713421575,4.978571428579 12.0213432224,5.121428571435 11.8427730617,5.464285714292 C11.5356323851,6.071428571435 11.4927755466,6.478571428585 11.4570615144,9.171428571435
L11.4213474823,11.7285714286 L11.5856320302,11.9 C11.699916933,12.0214285714 11.8213446424,12.0714285714 12.0070576096,12.0714285714 C12.4999112533,12.0714285714 12.4927684468,12.1214285714 12.528482479,9.250000000006
C12.5570537047,6.557142857157 12.6070533497,6.135714285728 12.8784799941,5.992857142864 C13.1356210256,5.857142857156 13.4570473149,5.942857142866 13.6284746693,6.207142857152 C13.7927592172,6.450000000013 13.7927592172,6.457142857151 13.7927592172,9.15000000001
C13.7927592172,11.6571428572 13.7856164107,11.8642857143 13.657045895,12.1714285714 C13.4427617021,12.6642857143 13.2641915413,12.7428571429 12.2999126732,12.7857142857 L11.4713471273,12.8214285714 L11.449918708,13.1785714286
C11.4142046758,13.7785714286 11.4713471273,13.8071428572 12.5499108983,13.8 C13.3070483799,13.8 13.5284753792,13.7714285714 13.7999020236,13.6571428571 C14.2070419901,13.4785714286 14.5141826666,13.0928571429 14.6927528274,12.5357142857
C14.8141805367,12.1428571429 14.8284661496,11.8571428572 14.8284661496,9.250000000006 C14.8284661496,6.635714285728 14.8141805367,6.357142857155 14.6927528274,5.9642857143 C14.4784686345,5.292857142863 14.3356125059,5.107142857157 13.8356160557,4.857142857149
C13.4927613471,4.68571428572 12.8713371876,4.678571428581 12.5070540597,4.835714285723 z"/>
      <path
          style="fill:#FF0000;stroke:none"
          id="45E90EC7"
          d="M17.3998764645,4.785714285724 C17.3784480452,4.821428571439 17.2998771745,4.857142857153 17.2284491102,4.857142857153 C17.0641645623,4.857142857153 16.5641681122,5.392857142867 16.4570260157,5.678571428581
C16.2213134035,6.328571428581 16.1855993714,6.764285714296 16.1855993714,9.25000000001 C16.1855993714,11.8142857143 16.2213134035,12.2785714286 16.4927400479,12.8571428572 C16.6355961765,13.1785714286 17.0713073687,13.6428571429 17.2213063038,13.6428571429
C17.2855915616,13.6428571429 17.3713052388,13.6785714286 17.4213048838,13.7285714286 C17.4784473353,13.7857142857 17.8141592375,13.8142857143 18.4784402355,13.8142857143 C19.4212906844,13.8071428571 19.4570047165,13.8 19.5855752322,13.6357142857
C19.7498597801,13.4285714286 19.7570025866,13.1571428572 19.6070036515,12.9428571429 C19.5070043615,12.8 19.4427191036,12.7857142857 18.8427233635,12.7857142857 C18.0141578175,12.7857142857 17.757016786,12.6714285714 17.5713038189,12.2071428572
C17.457018916,11.9214285714 17.4427333031,11.6214285714 17.4427333031,9.121428571439 C17.4355904967,6.421428571438 17.4427333031,6.335714285724 17.5855894317,6.135714285724 C17.7784452053,5.857142857153 18.121299914,5.85000000001 18.3712981391,6.114285714296
L18.5427254934,6.30000000001 L18.5641539127,8.95000000001 C18.5712967191,10.4142857143 18.5998679448,11.6785714286 18.6141535577,11.7642857143 C18.7070100413,12.1642857143 19.2284349107,12.2857142857 19.5427183937,11.9642857143
L19.7212885544,11.7928571429 L19.7212885544,9.70000000001 C19.7212885544,6.092857142867 19.5141471679,5.20000000001 18.6141535577,4.828571428581 C18.3141556876,4.70000000001 17.4713045288,4.671428571439 17.3998764645,4.785714285724
z"/>
      <path
          style="fill:#FF0000;stroke:none"
          id="B5E90EC7"
          d="M22.1141287086,5.028571428585 L21.9284157414,5.214285714297 L21.9498441607,9.271428571444 C21.97127258,12.1928571429 21.9998438057,13.3857142857 22.0641290636,13.55 C22.1141287086,13.6785714286 22.1784139665,13.8785714286 22.2141279986,14
C22.3141272887,14.3285714286 22.6641248038,14.8285714286 22.899837416,14.9714285714 C23.6069752526,15.4 23.8141166391,15.4428571429 25.3283916023,15.4785714286 C26.1069575032,15.5 26.5783827276,15.5428571429 26.6426679855,15.5928571429
C26.7212388562,15.6642857143 26.7355244691,15.8928571429 26.6998104369,16.8571428572 C26.6640964048,18.0785714286 26.5998111469,18.3357142857 26.285527664,18.65 C25.9569585682,18.9785714286 25.8141024396,19 24.078400477,19
C23.1069788024,19 22.3712697401,19.0285714286 22.2926988694,19.0714285714 C22.0284150314,19.2142857143 22.0498434507,20.0571428572 22.3141272887,20.2285714286 C22.4284121915,20.3 25.0926789901,20.2928571429 25.5426757952,20.2142857143
C26.2283852125,20.1 26.535525889,19.9928571429 26.8569521784,19.75 C27.2069496935,19.5 27.5069475636,19.1428571429 27.5069475636,18.9785714286 C27.5069475636,18.9285714286 27.5426615957,18.85 27.5783756279,18.8142857143
C27.7498029822,18.6428571429 27.7926598208,17.25 27.7926598208,11.35 C27.7926598208,6.507142857148 27.7712314015,5.14285714286 27.6998033372,5.050000000004 C27.5569472086,4.842857142873 27.1498072421,4.821428571439 26.9140946299,5.000000000016
L26.7212388562,5.15000000001 L26.7212388562,9.578571428581 C26.7212388562,12.5 26.6926676305,14.0571428572 26.6498107919,14.15 C26.5783827276,14.2714285714 26.485526244,14.2857142857 25.5569614081,14.2857142857
C24.3712555406,14.2857142857 23.9069731226,14.1642857143 23.5284043818,13.7571428572 C23.1284072217,13.3214285714 23.1284072217,13.3 23.0926931896,9.071428571432 C23.0712647703,5.942857142862 23.049836351,5.15000000001 22.9712654803,5.050000000004
C22.9212658352,4.971428571432 22.7498384809,4.90000000001 22.5926967394,4.878571428576 C22.3498413208,4.842857142873 22.2712704501,4.871428571442 22.1141287086,5.028571428585 z"/>
      <path
          style="fill:#FF0000;stroke:none"
          id="36E90EC7"
          d="M31.5426331968,5.035714285724 L31.364063036,5.207142857151 L31.3712058424,11.3714285714 C31.3712058424,14.7642857143 31.3997770682,17.6928571429 31.4354911003,17.8928571429 C31.5854900354,18.7428571429 31.728346164,19.1214285714 32.0354868405,19.4857142857
C32.2497710334,19.7357142857 32.6640538064,19.9857142857 33.0211941279,20.0785714286 C33.7069035452,20.25 34.035472641,20.2785714286 35.4140342821,20.2785714286 C36.7711675038,20.2857142857 36.8711667939,20.2785714286 37.0068801161,20.1428571429
C37.1140222125,20.0357142857 37.1497362447,19.9071428572 37.1497362447,19.6142857143 C37.1497362447,18.9857142857 37.1854502768,19 35.264035347,19 C33.4354769008,19 33.2640495465,18.9714285714 32.8926236121,18.5785714286
C32.5783401292,18.2428571429 32.442626807,17.6214285714 32.4354840006,16.5571428572 C32.4354840006,15.9071428571 32.4640552263,15.6357142857 32.5283404842,15.5928571429 C32.5711973228,15.5642857143 33.1783358693,15.5142857143 33.8640452867,15.4928571429
C35.1568932506,15.4428571429 35.57831883,15.3785714286 36.0068872158,15.1714285714 C36.3068850859,15.0285714286 36.9354520517,14.3857142857 36.9354520517,14.2214285714 C36.9354520517,14.15 36.9711660839,14.0642857143 37.0068801161,14.0285714286
C37.1640218575,13.8714285714 37.221164309,12.6 37.221164309,9.050000000011 C37.221164309,6.635714285719 37.1925930832,5.300000000006 37.1497362447,5.207142857151 C37.0925937932,5.100000000011 36.9997373096,5.071428571442 36.7283106653,5.071428571442
C36.1211721187,5.071428571442 36.1640289573,4.80000000001 36.1354577315,9.214285714303 C36.1140293122,13.0357142857 36.1140293122,13.1142857143 35.9640303772,13.3928571429 C35.57831883,14.1 35.0926079927,14.2857142857 33.621189868,14.2857142857
C32.6711966128,14.2857142857 32.5783401292,14.2714285714 32.5069120649,14.15 C32.4640552263,14.0571428572 32.4354840006,12.4857142857 32.4354840006,9.542857142873 L32.4354840006,5.078571428577 L32.2783422591,4.971428571437
C32.0426296469,4.80714285716 31.7426317768,4.828571428578 31.5426331968,5.035714285724 z"/>
      <path
          style="fill:#FF0000;stroke:none"
          id="76E90EC7"
          d="M0.817825092604,11.1142857143 C0.667826157565,11.3 0.667826157565,11.3642857143 0.667826157565,15.6214285714 L0.667826157565,19.9357142857 L0.846396318325,20.1071428571 C1.067823317669,20.3357142857 1.460677671343,20.35 1.667819057825,20.1428571429
C1.810675186434,20 1.810675186434,19.9071428572 1.810675186434,15.6214285714 C1.810675186434,10.6642857143 1.839246412155,10.9285714286 1.274964704152,10.9285714286 C1.024966479086,10.9285714286 0.932109995491,10.9642857143 0.817825092604,11.1142857143
z"/>
      <path
          style="fill:#FF0000;stroke:none"
          id="A6E90EC7"
          d="M9.314219585281,11.0642857143 L9.149935037381,11.2 L9.149935037381,15.5857142857 C9.149935037381,19.9 9.149935037381,19.9785714286 9.292791165989,20.1285714286 C9.485646939611,20.3357142857 9.885644099715,20.3357142857 10.0784998733,20.1428571429
C10.2213560019,20 10.2213560019,19.9071428572 10.2213560019,15.6214285714 C10.2213560019,10.7214285714 10.2427844212,10.9285714286 9.735645164676,10.9285714286 C9.585646229638,10.9357142857 9.399933262446,10.9928571429 9.314219585281,11.0642857143
z"/>
      <path
          style="fill:#FF0000;stroke:none"
          id="17E90EC7"
          d="M11.8070590295,14.2928571429 C11.6784885138,14.3214285714 11.549917998,14.3642857143 11.5213467723,14.3928571429 C11.4927755466,14.4214285714 11.4713471273,15.2 11.4713471273,16.1285714286 C11.4784899337,17.4714285714 11.499918353,17.9 11.5927748366,18.2142857143
C11.8856299002,19.2214285714 12.3784835439,19.6785714286 13.3856192506,19.9214285714 C13.5856178307,19.9714285714 14.4570402152,20 15.5784608248,20 C17.4855901417,20 17.8998729147,19.95 18.4998686548,19.6714285714
C18.7998665249,19.5285714286 19.3641482329,18.9571428572 19.3641482329,18.7928571429 C19.3641482329,18.7285714286 19.399862265,18.6357142857 19.4427191036,18.5928571429 C19.5927180387,18.4428571429 19.714145748,17.2642857143 19.7212885544,15.9785714286
C19.7212885544,14.4214285714 19.6784317158,14.2857142857 19.1355784271,14.2857142857 C18.6998672349,14.2857142857 18.5784395255,14.4785714286 18.5784395255,15.1857142857 C18.5784395255,15.65 18.5570111063,15.7785714286 18.4641546227,15.8142857143
C18.2784416555,15.8857142857 12.8856228005,15.8642857143 12.6927670269,15.7857142857 C12.5213396725,15.7214285714 12.5141968661,15.6928571429 12.4927684468,15.0214285714 L12.4713400275,14.3285714286 L12.2570558346,14.2857142857
C12.1427709317,14.2642857143 11.9356295452,14.2642857143 11.8070590295,14.2928571429 z M18.5427254934,17.6928571429 L18.535582687,18.2785714286 L18.2641560426,18.5214285714 C17.8927301082,18.8571428572 17.3927336581,18.9285714286 15.5213183733,18.9285714286
C13.3927620571,18.9285714286 12.9284796391,18.8071428572 12.6427673819,18.1857142857 C12.4927684468,17.85 12.4641972211,17.2857142857 12.5927677368,17.1571428572 C12.6570529947,17.0928571429 13.3927620571,17.0714285714 15.6141748569,17.0857142857
L18.5427254934,17.1071428572 L18.5427254934,17.6928571429 z"/>
      <path
          style="fill:#FF0000;stroke:none"
          id="B7E90EC7"
          d="M6.907093818225,22.3214285714 C6.671381206026,22.4357142857 6.56423910956,22.8642857143 6.678524012457,23.1928571429 L6.771380496047,23.4642857143 L9.53564658462,23.4857142857 L12.2999126732,23.5 L12.3641979311,23.6857142857
C12.4070547697,23.7857142857 12.4356259954,24.3285714286 12.4356259954,24.8857142857 C12.4356259954,25.8142857143 12.4499116082,25.9285714286 12.5856249304,26.1 C12.7641950912,26.3285714286 13.1070497998,26.3428571429 13.3641908313,26.1357142857
C13.5356181857,25.9857142857 13.5427609921,25.9571428571 13.5784750242,24.7571428572 L13.6141890564,23.5357142857 L15.2927485675,23.5142857143 C16.62845337,23.5 17.0998785944,23.5142857143 17.5927322382,23.6142857143
C18.4927258484,23.7857142857 18.535582687,23.8428571429 18.5641539127,24.9357142857 L18.5927251384,25.7928571429 L18.3427269133,26.0285714286 C17.8998729147,26.4428571429 17.757016786,26.4571428572 12.6713386076,26.5
C9.142792230951,26.5285714286 8.064228459952,26.5571428571 7.992800395655,26.6214285714 C7.949943557068,26.6714285714 7.857087073478,26.7142857143 7.792801815598,26.7142857143 C7.7213737513,26.7142857143 7.535660784106,26.8142857143 7.371376236204,26.9357142857
C6.56423910956,27.5214285714 6.485668238831,28.9714285714 7.221377301165,29.6928571429 C7.428518687653,29.9 7.585660429123,29.9785714286 8.221370201422,30.2142857143 C8.414225975048,30.2857142857 9.464218520323,30.3142857143 12.8641943812,30.3357142857
C17.557018206,30.3642857143 17.5141613674,30.3642857143 18.021300624,30.7285714286 C18.1355855269,30.8071428572 18.2927272683,31 18.3784409455,31.1642857143 C18.5284398805,31.4571428572 18.5284398805,31.5571428572 18.5498682998,34.4642857143
C18.5784395255,37.8571428572 18.535582687,37.6428571429 19.1570068464,37.6428571429 C19.7355741673,37.6428571429 19.7212885544,37.7285714286 19.7212885544,34.6428571429 C19.714145748,31.7928571429 19.6498604901,30.95 19.3784338457,30.3571428572
C19.0641503628,29.6571428572 18.5427254934,29.3357142857 17.3998764645,29.1428571429 C17.2070206909,29.1071428572 15.0998927939,29.0785714286 12.7213382526,29.0785714286 C8.942793650894,29.0714285714 8.364226330031,29.0571428572 8.107085298539,28.9571428572
C7.914229524913,28.8857142857 7.792801815598,28.7857142857 7.764230589874,28.6857142857 C7.714230944869,28.4928571429 7.714230944869,28.15 7.764230589874,27.9642857143 C7.857087073478,27.6071428571 7.785659009167,27.6071428571 12.7927663169,27.5714285714
C16.3998835643,27.5428571429 17.5498753996,27.5071428572 17.8284448504,27.4357142857 C19.0284363307,27.1142857143 19.4355762972,26.6857142857 19.6212892644,25.5642857143 C19.7070029416,25.0142857143 19.7070029416,24.85 19.6212892644,24.3
C19.5070043615,23.6071428571 19.3641482329,23.2714285714 19.0712931693,22.9857142857 C18.8141521377,22.7357142857 18.2070135912,22.4285714286 17.971300979,22.4285714286 C17.8641588825,22.4285714286 17.7284455603,22.4 17.657017496,22.3571428572
C17.4713045288,22.2642857143 7.09994959185,22.2285714286 6.907093818225,22.3214285714 z"/>
      <path
          style="fill:#FF0000;stroke:none"
          id="18E90EC7"
          d="M25.7355315688,22.3285714286 C25.5783898274,22.4357142857 25.5783898274,22.4642857143 25.5783898274,23.9857142857 C25.5783898274,25.2714285714 25.5569614081,25.6071428571 25.4498193116,25.95 C25.2426779251,26.6142857143 24.7855383136,27.1071428571 24.0069724127,27.5071428572
C23.6212608654,27.7071428572 23.4284050918,27.8571428572 23.0069795124,28.2928571429 C22.7284100616,28.5785714286 22.6141251587,28.7642857143 22.2855560629,29.4428571429 C22.2284136115,29.5642857143 22.1069859022,30.15 22.0069866122,30.8571428571
C21.97127258,31.0714285714 21.9427013543,32.6071428572 21.9427013543,34.2642857143 C21.9355585478,37.2785714286 21.9355585478,37.2785714286 22.0927002893,37.4285714286 C22.2998416758,37.6142857143 22.7926953195,37.6285714286 22.9569798674,37.4428571429
C23.0641219639,37.3214285714 23.0784075767,37 23.0784075767,34.2785714286 C23.0784075767,29.5428571429 23.1212644153,29.3857142857 24.5141116692,28.4571428572 C24.9069660229,28.2 25.3283916023,27.8857142857 25.4569621181,27.7642857143
C25.7498171817,27.4857142857 26.2212424061,26.8214285714 26.2212424061,26.6928571429 C26.2212424061,26.6428571429 26.2569564383,26.5642857143 26.2926704704,26.5285714286 C26.4712406312,26.35 26.6426679855,24.9071428572 26.6426679855,23.5857142857
C26.6498107919,22.5928571429 26.6426679855,22.5571428572 26.4712406312,22.3928571429 C26.2712420511,22.1857142857 25.971244181,22.1642857143 25.7355315688,22.3285714286 z"/>
      <path
          style="fill:#FF0000;stroke:none"
          id="98E90EC7"
          d="M31.364063036,22.2857142857 L28.2640850452,22.3214285714 L28.1712285616,22.5 C28.0640864652,22.7142857143 28.0498008523,23.0642857143 28.1498001423,23.3142857143 L28.2212282066,23.5 L31.4997763582,23.5
C34.3854701561,23.5 34.7926101226,23.5142857143 34.8926094126,23.6142857143 C34.9926087027,23.7142857143 35.0068943155,24.1785714286 35.0068943155,27.6642857143 C35.0068943155,31.25 34.9926087027,31.6428571429 34.8783237998,32.0142857143
C34.7354676712,32.4642857143 34.4568982204,32.8214285714 34.0783294796,33.0285714286 C33.8640452867,33.1428571429 33.5854758359,33.1714285714 32.0783436791,33.2214285714 C31.114064811,33.25 30.185499975,33.3071428572 30.0069298142,33.3428571429
C29.2855063648,33.4857142857 28.742653076,33.9214285714 28.5355116896,34.5285714286 C28.3997983674,34.9285714286 28.3712271417,35.9357142857 28.4855120446,36.0857142857 C28.5283688831,36.1357142857 28.5783685281,36.2571428571 28.5997969474,36.3571428572
C28.6712250117,36.6285714286 29.056936559,37.0571428572 29.3855056548,37.2214285714 C29.9426445564,37.4928571429 30.3140704907,37.5214285714 33.6283326745,37.55 L36.8497383746,37.5785714286 L36.9711660839,37.2571428572
C37.0854509868,36.9642857143 37.0854509868,36.9071428571 36.9854516968,36.6642857143 L36.8783096003,36.3928571429 L33.7497603838,36.3571428572 C30.4640694258,36.3142857143 30.1712143621,36.2857142857 29.9212161371,35.9857142857
C29.7640743956,35.8071428571 29.7426459763,34.95 29.8855021049,34.7642857143 C30.0926434914,34.4928571429 30.5354974901,34.4285714286 32.2997706784,34.4285714286 C33.8140456417,34.4285714286 34.035472641,34.4142857143 34.4783266397,34.2785714286
C35.3997486692,33.9928571429 35.9068879258,33.4214285714 36.0997436994,32.4642857143 C36.1354577315,32.2642857143 36.1854573766,30.1785714286 36.2140286023,27.8214285714 L36.2568854409,23.5357142857 L36.5711689238,23.5
C36.8497383746,23.4642857143 36.8925952132,23.4357142857 36.9854516968,23.1928571429 C37.0854509868,22.95 37.0854509868,22.8928571429 36.9711660839,22.6071428571 C36.8997380196,22.4142857143 36.806881536,22.2857142857 36.7354534717,22.2785714286
C36.2568854409,22.25 33.9926158024,22.2571428572 31.364063036,22.2857142857 z"/>
      <path
          style="fill:#FF0000;stroke:none"
          id="09E90EC7"
          d="M4.521396470459,22.4285714286 L4.364254728994,22.5785714286 L4.37139753542,28.7 C4.378540341859,34.5714285714 4.392825954711,35.2214285714 4.57139611548,35.9214285714 C4.757109082663,36.6357142857 5.399961661401,37.2642857143 6.128527917305,37.4428571429
C6.371383335949,37.5 8.042800040669,37.5357142857 11.7642021909,37.55 C17.757016786,37.5785714286 17.2498775295,37.6285714286 17.2498775295,36.9714285714 C17.2570203359,36.3 17.7498739796,36.3571428571 11.8856299002,36.3571428571
C7.3713762362,36.3571428571 6.657095593161,36.3428571429 6.257098433053,36.2428571429 C5.721387950771,36.1071428571 5.585674628597,35.9785714286 5.55710340288,35.6 L5.542817790014,35.3214285714 L11.2784913537,35.2857142857
C16.8570231758,35.25 17.0213077237,35.2428571429 17.1213070137,35.1142857143 C17.1784494652,35.0357142857 17.2213063038,34.8214285714 17.2213063038,34.6285714286 C17.2213063038,34.35 17.192735078,34.2714285714 17.0641645623,34.2
C16.9355940466,34.1285714286 15.6713173084,34.1 11.2570629344,34.0714285714 L5.614245854314,34.0357142857 L5.592817435023,33.5357142857 C5.578531822171,33.1285714286 5.592817435023,33.0214285714 5.692816725053,32.95
C5.792816015084,32.8785714286 6.992807495396,32.8571428572 11.399919063,32.8571428572 C16.7213098536,32.8571428572 16.992736498,32.85 17.0998785944,32.7285714286 C17.2784487552,32.5357142857 17.2641631423,31.9714285714 17.0784501752,31.7857142857
C16.9355940466,31.6428571429 16.8427375629,31.6428571429 11.2642057408,31.6428571429 C6.157099143036,31.6428571429 5.592817435023,31.6285714286 5.54996059644,31.5285714286 C5.528532177149,31.4642857143 5.507103757858,29.4285714286 5.507103757858,26.9928571429
C5.507103757858,22.6642857143 5.507103757858,22.5714285714 5.364247629258,22.4285714286 C5.171391855637,22.2357142857 4.728537856945,22.2357142857 4.521396470459,22.4285714286 z"/>
      <path
          style="fill:#FF0000;stroke:none"
          id="49E90EC7"
          d="M22.0927002893,22.4285714286 C21.9355585478,22.5785714286 21.9355585478,22.6071428572 21.9355585478,24.7571428572 L21.9355585478,26.9357142857 L22.1141287086,27.1071428572 C22.335555708,27.3357142857 22.7284100616,27.35 22.9355514481,27.1428571429
C23.0712647703,27.0071428572 23.0784075767,26.9071428572 23.0784075767,24.7642857143 C23.0784075767,22.6857142857 23.0712647703,22.5142857143 22.949837061,22.4071428572 C22.7641240938,22.2357142857 22.2855560629,22.25 22.0927002893,22.4285714286
z"/>
      <path
          style="fill:#FF0000;stroke:none"
          id="C9E90EC7"
          d="M28.6569393989,24.3142857143 C28.5569401089,24.3714285714 28.4569408188,24.4714285714 28.4283695931,24.5428571429 C28.3497987224,24.7357142857 28.3640843352,29.2428571429 28.4355123995,29.6785714286 C28.692653431,31.1714285714 28.9855084947,31.5571428571 30.1497859428,31.9142857143
C30.7640672959,32.1071428572 31.314063391,32.0928571429 32.3283419041,31.8714285714 C32.8211955478,31.7642857143 33.3283348044,31.3571428572 33.5497618037,30.8928571429 C33.8569024802,30.25 33.8783308995,29.9785714286 33.9140449317,27.3285714286
C33.935473351,25.9214285714 33.9283305445,24.6928571429 33.9069021252,24.6 C33.8569024802,24.4214285714 33.5354761909,24.2142857143 33.3069063851,24.2142857143 C33.2283355144,24.2142857143 33.0854793858,24.2785714286 32.9783372893,24.3642857143
C32.7997671285,24.5 32.7926243221,24.5428571429 32.7926243221,25.1428571429 C32.7926243221,25.7 32.7783387092,25.7928571429 32.6569109999,25.8571428572 C32.4569124199,25.9571428572 29.7426459763,25.9571428572 29.6783607184,25.85
C29.6497894927,25.8 29.621218267,25.5214285714 29.6140754606,25.2214285714 C29.6069326541,24.9214285714 29.5926470413,24.6285714286 29.5855042348,24.5714285714 C29.5783614284,24.4285714286 29.2140783005,24.2142857143 28.9926513011,24.2142857143
C28.9069376239,24.2214285714 28.7497958825,24.2642857143 28.6569393989,24.3142857143 z M32.7211962578,27.2785714286 C32.8140527414,27.4642857143 32.8140527414,28.9785714286 32.7140534514,29.6857142857 C32.6283397742,30.3357142857 32.4069127749,30.7285714286 32.0712008726,30.85
C31.7854886154,30.95 30.6283539737,30.95 30.2712136522,30.85 C30.0783578785,30.8 29.9569301692,30.7 29.8140740406,30.4785714286 C29.6283610734,30.1857142857 29.621218267,30.1357142857 29.5926470413,28.8428571429
C29.571218622,28.1142857143 29.5783614284,27.4285714286 29.6069326541,27.3285714286 L29.6497894927,27.1428571429 L31.1497788431,27.1428571429 C32.5569117099,27.1428571429 32.6497681935,27.15 32.7211962578,27.2785714286
z"/>
      <path
          style="fill:#FF0000;stroke:none"
          id="0AE90EC7"
          d="M25.7355315688,28.6142857143 L25.5783898274,28.7214285714 L25.5783898274,33.0357142857 C25.5783898274,37.85 25.5498186016,37.5714285714 26.0783862775,37.5714285714 C26.2926704704,37.5714285714 26.385526954,37.5285714286 26.5069546633,37.3785714286
C26.6498107919,37.1928571429 26.6498107919,37.1642857143 26.6355251791,32.9857142857 L26.6140967598,28.7785714286 L26.435526599,28.6428571429 C26.2212424061,28.4714285714 25.9498157617,28.4642857143 25.7355315688,28.6142857143
z"/>
      <text
          id="1DCB92E7"
          kerning="0.14727874692"
          style="stroke:none"
          font-family="LiSu"
          font-size="200"
          font-weight="normal"
          font-style="normal"
          transform="matrix(0.178571428571,0,0,0.178571428571,38.2846863897,1.007073666056)">
         <tspan x="56.6074443005" y="173.226002724">北河沿</tspan>
      </text>
   </g>
</svg>
