<?xml version="1.0" standalone="no"?>
<!DOCTYPE svg PUBLIC "-//W3C//DTD SVG 20010904//EN"
 "http://www.w3.org/TR/2001/REC-SVG-20010904/DTD/svg10.dtd">
<svg version="1.0" xmlns="http://www.w3.org/2000/svg"
 width="200.000000pt" height="200.000000pt" viewBox="0 0 200.000000 200.000000"
 preserveAspectRatio="xMidYMid meet">
<metadata>
Created by potrace 1.10, written by Peter Selinger 2001-2011
</metadata>
<g transform="translate(0.000000,200.000000) scale(0.050000,-0.050000)"
fill="#ff0000" stroke="none">
<path d="M128 3946 c-45 -32 -69 -418 -66 -1066 1 -137 2 -358 2 -490 0 -132
9 -256 19 -275 12 -22 11 -64 -3 -114 -17 -65 -24 -406 -17 -881 1 -38 1 -164
0 -280 -1 -116 -1 -307 0 -426 1 -118 -2 -220 -8 -225 -20 -21 12 -111 46
-130 22 -12 642 -22 1603 -26 861 -4 1584 -9 1606 -11 22 -2 139 7 260 20 121
12 240 22 264 21 78 -4 95 63 100 387 3 165 11 629 18 1030 8 402 12 771 11
820 -6 144 -17 240 -29 253 -6 6 -6 62 1 124 6 62 10 131 8 153 -2 22 -2 153
-1 290 9 892 24 828 -186 822 -80 -2 -555 -7 -1056 -11 -792 -6 -966 -12
-1120 -36 -16 -2 -107 8 -201 22 -94 14 -261 23 -370 20 -110 -4 -347 0 -529
9 -181 9 -340 8 -352 0z m2112 -284 c193 3 422 3 510 0 630 -15 882 -27 897
-41 18 -18 40 -428 36 -671 -2 -88 -6 -389 -10 -670 -4 -280 -13 -568 -21
-640 -7 -71 -2 -238 11 -370 13 -132 22 -253 20 -270 -21 -182 -31 -495 -16
-516 73 -98 -102 -188 -367 -188 -198 0 -998 1 -1120 2 -105 1 -457 16 -750
32 -201 11 -303 6 -450 -19 -124 -21 -233 -28 -310 -19 -66 7 -152 15 -191 18
-84 5 -159 48 -159 91 0 17 -8 40 -18 50 -11 12 -7 82 11 179 16 88 28 259 27
380 -1 121 -3 279 -3 350 -1 72 3 261 8 420 6 160 4 342 -3 405 -8 63 -7 122
1 130 9 9 9 106 0 216 -8 109 -12 244 -8 299 14 209 9 391 -12 416 -13 16 -15
52 -5 95 8 38 15 114 13 169 -3 171 -41 164 813 156 410 -4 904 -6 1096 -4z"/>
<path d="M469 3495 c-32 -83 1 -405 41 -405 58 0 62 415 5 426 -19 4 -40 -6
-46 -21z"/>
<path d="M690 3496 c-6 -14 -8 -341 -5 -726 l5 -700 55 -6 56 -7 -6 727 -5
726 -45 6 c-25 4 -50 -5 -55 -20z"/>
<path d="M909 3495 c-34 -90 1 -405 47 -411 62 -9 62 420 -1 432 -19 4 -40 -6
-46 -21z"/>
<path d="M1191 3473 c-87 -87 -104 -643 -21 -643 38 0 41 17 52 280 14 322 8
290 56 290 55 0 62 -36 62 -320 0 -295 -11 -320 -143 -320 -71 0 -79 -5 -73
-45 10 -70 170 -75 249 -8 l57 49 7 287 c7 325 -11 419 -88 454 -74 34 -105
29 -158 -24z"/>
<path d="M1653 3497 c-136 -79 -132 -742 4 -815 64 -35 216 -28 231 10 19 50
-4 68 -88 68 -112 0 -122 31 -116 355 6 260 8 275 46 275 38 0 40 -15 45 -240
6 -289 14 -330 63 -330 53 0 62 38 61 237 -4 399 -81 536 -246 440z"/>
<path d="M2113 3487 c-7 -8 -13 -183 -13 -391 0 -520 26 -572 301 -591 l139
-10 0 -113 c0 -181 -25 -202 -241 -202 l-179 0 0 -60 0 -60 161 0 c362 0 359
-6 359 796 l0 647 -45 -7 c-45 -6 -45 -7 -50 -441 l-6 -435 -98 0 c-224 0
-241 37 -241 535 0 351 -14 404 -87 332z"/>
<path d="M2994 3487 c-25 -25 -14 -1210 12 -1287 50 -146 495 -212 510 -75 l7
55 -179 0 c-219 0 -247 21 -260 201 l-9 119 108 0 c317 0 337 34 337 564 l0
419 -45 -7 c-45 -6 -45 -9 -50 -390 l-6 -384 -52 -41 c-39 -31 -82 -41 -169
-41 l-117 0 -6 435 c-5 437 -16 497 -81 432z"/>
<path d="M470 2916 c-39 -100 1 -846 45 -852 l46 -7 -6 436 c-5 398 -8 437
-40 443 -19 4 -40 -5 -45 -20z"/>
<path d="M925 2923 c-54 -34 -24 -852 30 -859 l46 -7 -6 435 c-5 427 -12 468
-70 431z"/>
<path d="M1123 2425 c13 -302 62 -345 393 -345 314 0 453 181 376 489 -20 81
-100 64 -108 -24 l-7 -65 -278 0 -279 0 0 70 c0 62 -6 70 -52 70 l-53 0 8
-195z m657 -123 c0 -83 -43 -107 -209 -118 -247 -15 -351 22 -351 127 l0 49
280 0 280 0 0 -58z"/>
<path d="M484 1863 c-40 -26 -26 -1255 15 -1317 60 -90 97 -96 639 -96 l512 0
6 54 6 54 -532 6 c-539 6 -568 10 -570 81 0 8 245 17 545 20 515 5 545 7 552
43 12 65 -36 71 -562 72 l-515 0 0 50 0 49 535 6 535 5 0 50 0 50 -540 10
-540 10 -10 428 c-10 421 -17 462 -76 425z"/>
<path d="M693 1867 c-7 -8 -13 -34 -13 -60 0 -45 3 -46 265 -51 l265 -6 10
-120 c15 -182 87 -179 96 5 l6 125 178 0 c251 0 280 -14 280 -138 0 -135 -25
-142 -544 -142 -506 0 -556 -15 -556 -173 0 -161 80 -187 578 -187 554 0 519
26 527 -400 l5 -270 50 0 50 0 0 300 c0 490 14 478 -580 485 -526 7 -535 8
-526 81 l6 54 480 10 c587 12 615 23 615 240 0 243 -41 259 -687 260 -270 0
-497 -6 -505 -13z"/>
<path d="M2114 1867 c-33 -32 -15 -442 19 -456 58 -22 69 17 63 240 -6 214
-27 271 -82 216z"/>
<path d="M2451 1856 c-5 -14 -12 -101 -15 -193 -7 -182 0 -170 -196 -320 -119
-91 -130 -135 -130 -533 0 -347 1 -360 40 -360 38 0 41 17 51 352 12 395 18
414 162 511 133 90 167 165 167 377 0 155 -5 180 -35 186 -19 4 -39 -5 -44
-20z"/>
<path d="M2693 1867 c-7 -8 -13 -35 -13 -60 l0 -47 321 0 321 0 -6 -409 c-7
-500 6 -476 -272 -493 -316 -20 -439 -152 -303 -325 76 -96 740 -147 763 -58
21 80 3 85 -291 85 -355 1 -373 5 -373 90 0 83 19 90 234 90 336 0 351 25 362
595 6 334 14 425 34 425 32 0 47 37 34 85 -9 36 -776 56 -811 22z"/>
<path d="M2725 1687 c-33 -14 -32 -489 1 -587 16 -48 46 -81 94 -105 146 -73
331 -21 374 105 38 113 34 573 -6 588 -49 19 -68 -4 -68 -79 l0 -69 -150 0
-150 0 0 68 c0 55 -37 105 -67 90 -1 0 -14 -6 -28 -11z m392 -315 c35 -182
-44 -321 -173 -306 -112 12 -123 31 -124 210 l0 146 145 -6 c123 -5 146 -12
152 -44z"/>
<path d="M2449 1274 c-34 -89 2 -824 41 -824 50 0 75 802 25 833 -36 23 -55
21 -66 -9z"/>
</g>
</svg>
