<?xml version="1.0" standalone="no"?>
<!DOCTYPE svg PUBLIC "-//W3C//DTD SVG 20010904//EN"
 "http://www.w3.org/TR/2001/REC-SVG-20010904/DTD/svg10.dtd">
<svg version="1.0" xmlns="http://www.w3.org/2000/svg"
 width="600.000000pt" height="600.000000pt" viewBox="0 0 600.000000 600.000000"
 preserveAspectRatio="xMidYMid meet">
<metadata>
Created by potrace 1.10, written by Peter Selinger 2001-2011
</metadata>
<g transform="translate(0.000000,600.000000) scale(0.100000,-0.100000)"
fill="#ff0000" stroke="none">
<path d="M189 5909 c-32 -15 -37 -22 -42 -64 -4 -26 -7 -67 -7 -91 0 -23 -5
-55 -11 -71 -29 -74 -38 -132 -27 -163 8 -24 8 -41 -1 -68 -15 -46 -16 -104
-11 -427 1 -77 1 -156 1 -175 0 -19 -1 -48 0 -65 0 -16 0 -39 0 -50 2 -124
-13 -380 -22 -391 -9 -11 -9 -32 0 -87 13 -82 18 -267 8 -284 -4 -6 3 -23 14
-37 18 -22 20 -35 15 -69 -19 -113 -24 -216 -14 -280 8 -50 8 -82 0 -118 -15
-63 -15 -104 -1 -131 8 -16 8 -31 0 -60 -10 -32 -10 -44 2 -61 22 -35 40 -113
34 -149 -3 -18 -13 -60 -22 -93 -16 -58 -27 -248 -25 -416 1 -46 -3 -80 -9
-84 -6 -3 -8 -12 -4 -18 12 -19 15 -418 3 -432 -7 -9 -7 -21 0 -41 17 -43 27
-320 17 -459 -3 -33 -8 -118 -11 -190 -3 -71 -9 -140 -11 -153 -3 -12 1 -42 9
-66 9 -27 15 -85 15 -157 1 -63 1 -124 1 -136 0 -13 0 -35 0 -50 -5 -159 -3
-405 4 -434 7 -30 4 -42 -13 -65 -17 -24 -19 -35 -12 -59 5 -17 15 -50 23 -75
11 -39 20 -48 63 -70 48 -24 57 -25 200 -21 448 10 1244 4 1328 -10 43 -7 62
-7 73 1 10 9 188 12 676 12 365 -1 681 -1 703 -1 22 0 110 0 195 0 304 1 696
-7 707 -14 6 -4 23 0 39 7 23 11 94 13 349 11 338 -2 425 -10 470 -39 23 -15
32 -16 53 -6 25 11 169 24 422 36 78 4 136 12 154 21 19 10 43 13 72 8 30 -4
52 -1 74 10 25 13 38 14 65 5 43 -14 100 7 110 42 4 12 16 34 26 47 21 26 27
138 9 171 -7 13 -5 29 6 56 11 26 13 44 6 58 -5 12 -7 37 -4 57 2 21 -1 40 -7
43 -13 9 -15 53 -2 61 6 3 6 17 0 34 -8 23 -7 35 4 53 12 17 15 60 16 177 2
133 -1 156 -16 173 -15 17 -15 22 -3 41 7 12 15 56 17 97 2 41 8 79 12 85 5 5
5 42 0 80 -14 122 -10 337 6 359 8 10 12 23 9 28 -4 5 -10 39 -14 75 -7 53 -5
71 7 90 13 19 14 29 5 48 -8 18 -9 33 -1 52 6 16 10 64 10 108 -3 218 -10 377
-19 388 -12 14 -7 118 13 326 13 130 13 147 -1 168 -12 20 -13 30 -4 58 6 19
9 39 6 44 -8 13 12 199 25 232 8 21 6 37 -11 77 -19 43 -20 56 -11 105 12 64
6 119 -17 164 -13 26 -14 36 -4 58 17 38 15 53 -13 77 -25 22 -33 62 -15 73 6
4 8 21 4 40 -3 19 -3 39 1 45 4 7 8 35 9 63 2 29 8 80 15 115 10 53 9 70 -4
108 -8 24 -15 55 -15 67 0 13 -5 28 -11 34 -9 9 -9 19 -1 40 6 15 11 42 11 58
0 17 3 62 7 102 4 42 2 85 -4 102 -8 21 -7 39 0 59 9 24 8 37 -4 63 -15 30
-15 36 -1 69 10 21 17 67 18 115 1 44 7 90 13 102 15 28 15 96 1 110 -17 17
-17 159 -1 174 19 20 15 67 -8 81 -23 15 -25 38 -6 76 24 47 30 110 12 137
-12 19 -14 40 -9 103 6 78 5 81 -21 106 -17 15 -49 29 -84 36 -32 6 -72 15
-91 20 -25 7 -42 5 -63 -6 -16 -8 -37 -13 -46 -10 -10 3 -62 1 -117 -5 -110
-11 -173 -13 -346 -9 -77 1 -129 -2 -153 -11 -30 -11 -42 -11 -73 1 -28 11
-96 16 -263 18 -124 2 -238 2 -255 2 -39 -2 -83 -2 -175 -1 -41 1 -113 -1
-160 -5 -47 -3 -89 -5 -95 -4 -61 7 -370 9 -378 2 -7 -5 -65 -5 -137 0 -69 5
-233 7 -365 3 -132 -4 -269 -6 -303 -5 -39 1 -72 -4 -85 -12 -53 -33 -104 -42
-175 -29 -63 11 -73 10 -123 -9 -44 -17 -67 -19 -124 -14 -38 4 -86 13 -105
22 -19 8 -75 18 -125 23 -49 4 -112 13 -140 19 -47 11 -288 8 -505 -6 -41 -3
-84 -5 -95 -5 -65 -1 -508 22 -600 31 -60 6 -193 11 -295 13 -152 2 -190 -1
-221 -14z m719 -412 c36 -31 348 -29 522 3 43 8 78 6 158 -7 79 -12 117 -14
160 -7 32 6 80 9 107 7 28 -2 226 -7 440 -12 321 -6 397 -5 430 6 21 7 46 11
55 7 8 -4 80 -11 160 -16 80 -4 154 -9 165 -10 11 -1 88 2 170 6 83 4 254 10
380 13 127 3 271 7 320 9 201 9 358 1 415 -21 55 -21 193 -28 490 -24 118 1
288 2 377 3 l163 1 31 -32 c26 -25 33 -42 37 -85 2 -29 9 -59 15 -66 7 -9 6
-30 -3 -68 -10 -41 -11 -66 -3 -94 7 -29 6 -44 -5 -66 -13 -24 -13 -30 1 -54
14 -24 20 -115 16 -245 0 -16 4 -55 10 -85 9 -41 9 -64 0 -92 -10 -30 -9 -50
5 -105 19 -80 20 -115 4 -131 -9 -9 -8 -21 2 -52 12 -37 11 -44 -9 -86 -16
-32 -22 -56 -18 -79 3 -18 1 -37 -4 -42 -16 -16 -18 -189 -3 -212 12 -16 11
-22 -7 -45 -20 -25 -20 -28 -5 -108 8 -46 12 -95 9 -111 -3 -15 0 -34 7 -42
12 -15 5 -55 -11 -55 -14 0 -11 -34 6 -56 20 -26 19 -73 -2 -96 -16 -18 -16
-21 -1 -51 15 -27 16 -63 14 -252 -2 -121 -8 -245 -14 -275 -6 -30 -13 -100
-15 -155 -2 -55 -8 -109 -14 -120 -6 -13 -7 -46 -3 -90 5 -38 6 -74 3 -79 -3
-5 -7 -57 -8 -115 -2 -80 1 -112 13 -130 11 -18 15 -62 18 -168 1 -80 7 -150
12 -156 14 -18 33 -287 21 -308 -5 -10 -9 -29 -9 -42 0 -13 -6 -37 -14 -53
-11 -22 -14 -67 -12 -194 2 -98 -1 -170 -7 -178 -7 -8 -6 -21 1 -37 13 -27 5
-142 -9 -151 -17 -10 -8 -52 16 -75 13 -13 25 -31 25 -39 0 -25 -33 -104 -53
-127 -20 -22 -138 -83 -161 -83 -8 0 -19 -7 -27 -16 -10 -12 -24 -14 -64 -9
-42 5 -55 3 -77 -15 -30 -23 -82 -26 -118 -5 -34 19 -130 19 -190 -1 -33 -11
-65 -14 -97 -10 -118 15 -258 26 -383 31 -74 2 -171 8 -215 13 -46 4 -99 4
-125 -2 -72 -15 -427 -19 -491 -6 -49 11 -64 9 -129 -10 -56 -17 -88 -21 -130
-16 -30 3 -90 10 -132 14 -42 5 -83 13 -90 19 -26 21 -85 23 -164 7 -43 -9
-129 -18 -190 -21 -101 -3 -115 -1 -148 18 -32 19 -56 22 -184 25 -278 8 -702
5 -721 -6 -22 -11 -196 -32 -259 -31 -23 1 -56 -6 -72 -14 -16 -8 -46 -15 -66
-15 -21 0 -66 -5 -101 -11 -57 -10 -67 -9 -102 9 -21 11 -41 19 -43 17 -2 -3
-31 -5 -63 -6 -44 -2 -73 3 -107 19 -50 23 -171 31 -183 12 -11 -18 -29 -10
-74 30 -25 22 -50 40 -57 40 -21 0 -35 37 -29 73 5 27 1 37 -24 61 -33 32 -39
54 -18 75 11 11 15 44 17 125 0 16 5 37 11 48 6 11 15 52 19 92 5 39 13 96 19
126 11 55 22 184 25 271 0 25 7 53 14 62 11 12 11 31 3 91 -6 41 -8 82 -5 90
3 8 -1 30 -10 47 -10 20 -16 58 -16 101 0 42 -6 80 -15 98 -10 20 -16 71 -19
167 -4 116 -2 141 11 155 12 14 16 44 18 131 1 62 7 121 13 132 17 34 25 307
13 453 -9 103 -9 137 0 148 9 11 9 24 1 52 -7 20 -14 82 -16 138 -2 65 -9 112
-19 131 -15 27 -15 32 1 54 9 13 22 30 29 37 13 14 11 79 -4 142 -4 14 -7 102
-8 196 0 126 -4 176 -14 188 -9 11 -11 32 -7 68 3 29 6 67 6 83 0 17 5 45 11
62 9 28 7 37 -11 63 -18 26 -20 33 -9 46 7 9 14 48 16 87 1 40 8 84 14 99 11
28 10 59 -11 218 -7 57 -21 110 -33 133 -18 31 -19 41 -9 57 7 11 12 51 12 89
0 39 4 73 10 76 5 3 10 29 10 58 0 163 -2 192 -17 209 -22 25 -12 52 22 58 20
4 31 12 35 29 4 16 17 28 37 35 18 6 37 16 42 21 17 17 279 10 299 -8z"/>
<path d="M702 5240 c-22 -20 -22 -26 -22 -300 0 -274 0 -280 22 -300 29 -26
98 -28 121 -2 15 16 17 52 17 304 0 263 -1 286 -18 301 -26 24 -93 22 -120 -3z"/>
<path d="M1032 5240 l-22 -21 0 -1049 c0 -1037 0 -1050 20 -1070 15 -15 33
-20 73 -20 28 0 59 5 67 10 13 8 15 140 18 1072 l2 1063 -22 17 c-33 25 -108
24 -136 -2z"/>
<path d="M1367 5242 c-15 -16 -17 -53 -17 -314 0 -334 -3 -323 77 -323 74 0
73 -3 73 330 0 270 -1 293 -18 308 -26 23 -94 22 -115 -1z"/>
<path d="M1820 5243 c-47 -20 -68 -40 -93 -88 -43 -85 -49 -142 -54 -519 l-5
-358 23 -24 c16 -17 33 -24 59 -24 69 0 68 -7 73 395 4 377 11 436 49 456 36
19 81 7 105 -30 23 -34 23 -35 23 -412 0 -351 -1 -380 -19 -423 -30 -69 -55
-80 -190 -86 l-116 -5 -3 -50 c-5 -84 3 -88 154 -87 106 0 137 4 175 20 57 25
100 79 125 157 17 55 19 95 19 460 0 366 -2 405 -19 460 -30 94 -50 120 -120
155 -48 24 -135 25 -186 3z"/>
<path d="M2505 5250 c-3 -5 -14 -10 -24 -10 -23 0 -93 -75 -108 -115 -33 -91
-38 -152 -38 -500 0 -359 5 -424 43 -505 20 -45 81 -110 102 -110 9 0 21 -5
28 -12 8 -8 55 -12 148 -12 132 1 137 2 155 25 23 29 24 67 3 97 -14 20 -23
22 -107 22 -116 0 -152 16 -178 81 -16 40 -18 82 -18 432 -1 378 0 390 20 418
27 39 75 40 110 3 l24 -26 3 -371 c1 -205 5 -382 7 -394 13 -56 86 -73 130
-28 l25 24 0 293 c0 505 -29 630 -155 682 -42 18 -160 22 -170 6z"/>
<path d="M3165 5216 l-26 -26 3 -568 c3 -409 7 -576 16 -599 7 -18 16 -46 21
-63 14 -46 63 -116 96 -136 99 -60 128 -66 340 -71 109 -3 175 -9 184 -16 11
-10 13 -42 8 -177 -5 -171 -14 -207 -58 -251 -46 -46 -66 -49 -309 -49 -136 0
-239 -4 -250 -10 -37 -20 -34 -138 3 -162 16 -10 389 -9 452 2 96 16 139 31
184 65 49 35 91 85 91 108 0 7 5 18 10 23 24 24 30 219 30 1045 0 678 -3 869
-13 882 -20 29 -77 32 -110 7 l-27 -21 0 -620 c0 -409 -4 -627 -10 -640 -10
-17 -23 -19 -153 -19 -166 0 -231 17 -284 74 -56 61 -56 64 -61 656 -3 438 -6
549 -17 563 -7 11 -31 21 -53 24 -34 5 -45 1 -67 -21z"/>
<path d="M4485 5215 l-25 -24 1 -863 c0 -475 4 -885 9 -913 21 -119 41 -172
84 -223 30 -35 88 -70 138 -83 96 -24 142 -28 335 -28 190 -1 204 0 223 19 15
15 20 33 20 74 0 88 5 86 -264 86 -256 0 -280 4 -332 59 -44 47 -63 134 -64
283 0 91 4 129 13 135 6 4 91 11 187 14 181 7 240 16 300 45 42 20 130 110
130 133 0 10 5 22 10 27 22 22 30 200 30 697 0 338 -4 525 -10 538 -8 15 -21
19 -59 19 -85 0 -79 38 -83 -580 -3 -535 -3 -546 -24 -585 -54 -99 -122 -125
-328 -125 -133 0 -146 2 -156 19 -6 13 -10 233 -10 645 l0 625 -22 15 c-33 23
-75 20 -103 -9z"/>
<path d="M701 4364 c-21 -26 -21 -35 -21 -631 l0 -604 25 -24 c31 -32 86 -34
115 -5 20 20 20 33 20 633 0 694 4 657 -75 657 -35 0 -48 -5 -64 -26z"/>
<path d="M1373 4371 l-23 -19 0 -614 c0 -604 0 -615 20 -636 27 -29 83 -29
110 -2 20 20 20 33 20 633 0 686 3 657 -68 657 -21 -1 -47 -9 -59 -19z"/>
<path d="M1722 3919 c-18 -4 -36 -10 -40 -14 -4 -4 -7 -113 -7 -243 1 -188 4
-248 17 -292 41 -141 110 -205 251 -239 28 -7 150 -11 307 -11 267 0 325 7
409 46 42 20 121 100 121 123 0 9 5 22 11 28 21 21 38 186 39 366 0 218 -6
237 -82 237 -61 0 -78 -27 -78 -126 0 -65 -3 -83 -16 -88 -26 -10 -781 -7
-808 4 -24 9 -25 13 -28 107 l-3 97 -30 6 c-16 3 -45 3 -63 -1z m943 -476 l-1
-82 -38 -34 c-52 -47 -122 -57 -384 -57 -298 0 -363 17 -403 104 -21 47 -25
126 -7 144 9 9 112 12 423 10 l410 -3 0 -82z"/>
<path d="M1036 2795 c-33 -16 -48 -76 -32 -122 l13 -38 387 -3 387 -2 9 -26
c6 -14 10 -90 10 -168 0 -130 2 -146 21 -170 25 -32 73 -34 109 -5 24 21 25
25 30 193 l5 171 235 3 c187 2 253 0 322 -14 126 -24 132 -32 136 -185 l4
-120 -35 -33 c-62 -58 -82 -60 -794 -66 -494 -4 -645 -8 -655 -17 -6 -7 -19
-13 -28 -13 -10 0 -36 -14 -59 -31 -113 -82 -124 -285 -21 -386 29 -29 51 -40
140 -73 27 -10 174 -14 650 -17 657 -4 651 -4 722 -55 16 -11 38 -38 50 -61
21 -41 21 -55 24 -462 4 -475 -2 -445 85 -445 81 0 79 -12 79 420 -1 399 -10
517 -48 600 -44 98 -117 143 -277 170 -27 5 -322 9 -655 9 -529 1 -610 3 -646
17 -27 10 -44 24 -48 38 -7 27 -7 75 0 101 13 50 3 50 704 55 505 4 666 9 705
19 168 45 225 105 251 262 12 77 12 100 0 177 -16 97 -36 144 -77 184 -36 35
-121 78 -154 78 -15 0 -34 4 -44 10 -26 13 -1478 18 -1505 5z"/>
<path d="M3672 2794 c-22 -15 -22 -19 -22 -232 0 -180 -3 -227 -18 -275 -29
-93 -93 -162 -202 -218 -54 -28 -81 -49 -140 -110 -39 -40 -55 -66 -101 -161
-8 -17 -25 -99 -39 -198 -5 -30 -9 -245 -9 -477 -1 -422 -1 -422 21 -443 29
-26 98 -28 121 -2 15 17 17 62 17 443 0 663 6 685 201 815 55 36 114 80 132
97 41 39 107 132 107 150 0 7 5 18 10 23 25 25 49 227 49 412 1 139 0 144 -24
167 -28 29 -70 32 -103 9z"/>
<path d="M4460 2800 l-434 -5 -13 -25 c-15 -30 -17 -79 -3 -114 l10 -26 459 0
c404 0 461 -2 475 -16 14 -14 16 -79 16 -567 0 -502 -2 -557 -18 -609 -20 -63
-59 -113 -112 -142 -30 -16 -69 -20 -280 -27 -135 -4 -265 -12 -290 -17 -101
-20 -177 -81 -206 -166 -19 -56 -23 -197 -7 -218 6 -7 13 -24 16 -38 10 -38
64 -98 110 -121 78 -38 130 -42 594 -46 l451 -4 17 45 c16 41 16 49 2 83 l-15
38 -438 5 c-460 6 -501 10 -536 52 -22 25 -25 145 -5 171 29 38 91 47 338 47
212 0 243 2 305 21 129 40 200 120 227 254 5 28 12 320 16 650 l6 600 44 5
c39 5 45 9 58 43 14 34 14 42 -2 82 -10 27 -23 45 -33 46 -67 4 -384 3 -752
-1z"/>
<path d="M702 2780 l-22 -21 1 -857 c1 -822 3 -913 28 -1011 26 -100 116 -188
218 -213 34 -8 268 -13 789 -15 839 -4 768 -11 768 81 1 94 70 86 -751 86
-632 0 -732 2 -788 16 -75 19 -94 37 -98 90 l-2 39 803 5 c781 5 804 6 818 24
8 11 14 41 14 68 0 39 -4 50 -22 60 -18 10 -195 14 -813 18 l-790 5 -3 70 c-2
57 0 72 14 82 14 10 182 13 799 13 745 0 783 1 798 18 25 27 23 106 -3 132
-20 20 -33 20 -814 20 -715 0 -794 2 -800 16 -3 9 -6 294 -6 635 0 606 0 619
-20 639 -27 27 -89 27 -118 0z"/>
<path d="M3162 2780 c-22 -21 -22 -25 -22 -326 l0 -305 25 -24 c31 -32 86 -34
115 -5 19 19 20 33 20 333 0 291 -1 315 -18 330 -26 24 -93 22 -120 -3z"/>
<path d="M4081 2516 c-14 -8 -28 -22 -32 -32 -11 -27 -9 -658 1 -719 36 -209
77 -263 240 -313 86 -27 163 -25 305 6 69 15 140 72 171 137 43 90 46 128 51
499 3 197 2 369 -1 382 -7 25 -52 54 -84 54 -11 0 -31 -9 -46 -21 -25 -19 -26
-25 -26 -109 0 -78 -2 -91 -19 -100 -28 -14 -408 -14 -417 1 -4 7 -8 46 -9 88
-1 42 -3 83 -4 91 -1 20 -52 50 -83 50 -12 -1 -34 -7 -47 -14z m569 -415 c13
-26 13 -238 -1 -337 -12 -91 -43 -146 -90 -163 -40 -14 -202 -14 -252 0 -27 7
-44 21 -64 52 -26 41 -27 48 -31 229 -3 102 -2 198 2 212 l6 26 210 0 c197 0
210 -1 220 -19z"/>
<path d="M3672 1914 l-22 -15 0 -604 c0 -674 -4 -635 70 -635 30 0 43 6 60 27
20 26 20 30 18 615 l-3 589 -25 19 c-30 24 -68 25 -98 4z"/>
</g>
</svg>
